<?xml version="1.0" encoding="UTF-8" standalone="no"?>
<svg
   height="24px"
   viewBox="0 -960 960 960"
   width="24px"
   fill="#e8eaed"
   version="1.1"
   id="svg1"
   sodipodi:docname="folder_24dp_E8EAED_FILL0_wght400_GRAD0_opsz24.svg"
   inkscape:version="1.3.2 (091e20e, 2023-11-25, custom)"
   xmlns:inkscape="http://www.inkscape.org/namespaces/inkscape"
   xmlns:sodipodi="http://sodipodi.sourceforge.net/DTD/sodipodi-0.dtd"
   xmlns="http://www.w3.org/2000/svg"
   xmlns:svg="http://www.w3.org/2000/svg">
  <defs
     id="defs1" />
  <sodipodi:namedview
     id="namedview1"
     pagecolor="#ffffff"
     bordercolor="#666666"
     borderopacity="1.0"
     inkscape:showpageshadow="2"
     inkscape:pageopacity="0.0"
     inkscape:pagecheckerboard="0"
     inkscape:deskcolor="#d1d1d1"
     showgrid="false"
     inkscape:zoom="33.458333"
     inkscape:cx="12"
     inkscape:cy="12"
     inkscape:current-layer="svg1" />
  <path
     id="path1"
     d="M 160 -800 C 138.00002 -800 119.18228 -792.15103 103.51562 -776.48438 C 87.848974 -760.81772 80 -741.99998 80 -720 L 80 -240 C 80 -218.00002 87.848974 -199.18228 103.51562 -183.51562 C 119.18228 -167.84897 138.00002 -160 160 -160 L 800 -160 C 821.99998 -160 840.81772 -167.84897 856.48438 -183.51562 C 872.15103 -199.18228 880 -218.00002 880 -240 L 880 -640 C 880 -661.99998 872.15103 -680.81772 856.48438 -696.48438 C 840.81772 -712.15103 821.99998 -720 800 -720 L 480 -720 L 400 -800 L 160 -800 z M 160 -720 L 367.03125 -720 L 447.03125 -640 L 800 -640 L 800 -240 L 160 -240 L 160 -720 z "
     style="fill:#000000;fill-opacity:1" />
</svg>
